<svg xmlns="http://www.w3.org/2000/svg" viewBox="0 0 512 512">
  <rect width="512" height="512" rx="64" fill="#111"/>
  <circle cx="256" cy="256" r="188" fill="#1f1f1f"/>
  <g fill="#1db954" transform="translate(80 80) scale(0.3666666667)">
    <path d="M485-275q35-35 35-85v-280h120v-80H460v256q-14-8-29-12t-31-4q-50 0-85 35t-35 85q0 50 35 85t85 35q50 0 85-35Zm-5 195q-83 0-156-31.5T197-197q-54-54-85.5-127T80-480q0-83 31.5-156T197-763q54-54 127-85.5T480-880q83 0 156 31.5T763-763q54 54 85.5 127T880-480q0 83-31.5 156T763-197q-54 54-127 85.5T480-80Zm0-80q134 0 227-93t93-227q0-134-93-227t-227-93q-134 0-227 93t-93 227q0 134 93 227t227 93Zm0-320Z"/>
  </g>
</svg>
