<svg xmlns="http://www.w3.org/2000/svg" viewBox="0 0 512 512" role="img" aria-label="Spotify app logo">
  <circle cx="256" cy="256" r="256" fill="#1DB954"/>
  <path fill="#191414" d="M372.7 348.8c-4.3 7.1-13.6 9.4-20.7 5.1-56.7-34.6-128-42.4-212-23.3-8.1 1.8-16.2-3.2-18.1-11.4-1.8-8.1 3.2-16.2 11.4-18.1 91.8-20.9 170.2-11.7 234.3 27.4 7.1 4.3 9.4 13.6 5.1 20.7z"/>
  <path fill="#191414" d="M402.2 281.7c-5.4 8.8-16.9 11.6-25.8 6.2-65-39.9-164-51.5-240.9-28.3-9.9 3-20.4-2.6-23.4-12.5s2.6-20.4 12.5-23.4c88.1-26.6 197.6-13.7 271.3 31.5 8.8 5.4 11.6 16.9 6.2 25.8z"/>
  <path fill="#191414" d="M404.8 211.8c-77.9-46.2-206.4-50.5-280.7-28-11.8 3.6-24.3-3.1-27.9-14.9s3.1-24.3 14.9-27.9c85.3-25.8 226.8-20.8 316.4 32.4 10.6 6.3 14.1 20 7.8 30.6-6.3 10.6-20 14.1-30.6 7.8z"/>
</svg>
